<?xml version="1.0" encoding="UTF-8" standalone="no"?>
<!-- Created with Inkscape (http://www.inkscape.org/) -->

<svg
   width="87.836342mm"
   height="82.484543mm"
   viewBox="0 0 87.836342 82.484543"
   version="1.1"
   id="svg1"
   xml:space="preserve"
   xmlns="http://www.w3.org/2000/svg"
   xmlns:svg="http://www.w3.org/2000/svg"><defs
     id="defs1" /><g
     id="layer2"
     style="display:inline"
     transform="translate(-60.410795,-90.12203)"><path
       style="fill:#c9d102;fill-opacity:1;fill-rule:evenodd;stroke:none;stroke-width:0.2;stroke-opacity:1"
       d="m 88.852204,114.38393 c 1.096359,2.84545 2.388145,4.94359 3.077153,6.96862 0.991153,2.91305 1.225648,5.61831 1.141877,8.44951 -0.211266,7.14016 -3.061594,10.95268 -6.122709,13.69441 -3.726955,3.3381 -8.349753,5.84546 -13.274002,6.34656 -2.569443,0.26147 -5.621579,0.52935 -7.893673,1.08745 -2.645038,0.6497 -4.481051,1.69354 -5.028028,3.29544 -0.454816,1.33199 -0.370536,2.62272 -0.231688,3.87251 0.195736,1.76185 1.035114,3.44234 2.07931,5.04238 0.895276,1.37184 2.112005,2.832 4.088772,3.93708 3.141885,1.75641 4.757096,2.32445 8.48432,2.69519 7.574965,0.54049 13.163591,-1.96621 17.564918,-6.06907 4.398037,-4.0998 7.562186,-10.32413 8.164176,-19.18543 0.32021,-4.71342 -0.34458,-10.03077 -1.386392,-16.28468 l 19.998372,20.63083 c -1.922,-3.5659 -3.76965,-7.83376 -4.29218,-12.16958 -0.18199,-1.51011 -0.0658,-3.02847 0.0754,-4.52828 0.65627,-6.97279 4.68734,-13.66191 13.54664,-17.12545 2.3063,-0.90164 4.99813,-1.43885 7.97378,-1.87813 3.13917,-0.42481 5.6083,-1.15504 7.79088,-2.74374 1.95679,-1.42435 3.80912,-3.50656 3.62539,-8.18199 -0.45743,-5.74641 -5.33716,-9.035501 -9.67325,-9.664105 -3.06285,-0.444023 -5.92232,-0.100565 -8.56281,0.315207 -7.18439,1.131255 -13.21779,4.667347 -17.1264,10.250808 -3.71604,5.30837 -5.46898,12.41711 -6.06749,19.71509 -0.34414,4.19635 0.40434,8.21979 0.63227,11.35075 -5.84002,-6.92535 -11.619335,-13.65462 -18.584626,-19.82138 z"
       id="path3" /><g
       id="g48"><path
         style="fill:#c9d102;fill-opacity:1;fill-rule:evenodd;stroke:none;stroke-width:0.2;stroke-opacity:1"
         d="m 128.74971,115.52591 c 3.01835,6.39643 4.93241,12.74126 4.99254,17.38949 0.0531,4.10399 -0.85611,7.34405 -2.94958,9.87416 -5.30815,6.41529 -15.57518,9.42587 -23.74868,14.27686 -6.00953,3.56667 -9.276804,8.34106 -10.065135,14.39036 13.404585,1.127 26.373125,4.15844 39.204705,-8.40733 6.45921,-8.21797 6.92633,-16.11747 6.29367,-22.62657 -1.00197,-10.3087 -7.19211,-18.31896 -13.72752,-24.89697 z"
         id="path2" /><path
         style="fill:#ffffff;fill-opacity:1;fill-rule:evenodd;stroke:none;stroke-width:0.2;stroke-opacity:1"
         d="m 129.44374,117.04196 c 7.17739,7.82217 9.07484,16.58103 8.38333,24.31455 -1.01131,11.30998 -8.24826,20.99673 -24.15694,22.88085 1.61269,-0.73802 3.87306,-1.45813 5.33885,-2.1994 4.28419,-2.16657 8.38581,-4.07963 13.06134,-10.27603 1.26075,-1.67084 2.08873,-3.97912 3.22264,-6.51912 1.23822,-3.33893 1.38858,-6.47928 1.32455,-9.44743 -0.14236,-6.59973 -2.98971,-12.16015 -6.5797,-17.34466 -0.27241,-0.39341 -0.59407,-1.40876 -0.59407,-1.40876 z"
         id="path48" /></g><g
       id="g47"><path
         d="m 94.688794,90.123181 c -4.808704,0.0322 -9.421028,0.55717 -13.518038,2.092896 -6.519386,2.44373 -11.258514,6.683356 -14.229106,12.969233 -3.105577,6.57151 -3.846068,13.91702 -0.0068,25.84152 1.608463,4.99578 7.195024,12.42349 11.055238,15.72575 -4.298858,-9.59317 -6.842161,-20.39626 -2.054188,-26.64053 5.977961,-7.7962 19.09169,-10.60634 26.78798,-16.54948 4.40762,-3.40359 6.14298,-7.605759 7.22486,-12.387109 -4.88312,-0.43639 -10.451275,-1.084483 -15.259979,-1.05228 z"
         style="display:inline;fill:#c9d102;fill-opacity:1;fill-rule:evenodd;stroke:none;stroke-width:0.2"
         id="path41" /><path
         style="display:inline;fill:#ffffff;fill-opacity:1;fill-rule:evenodd;stroke:none;stroke-width:0.2;stroke-dasharray:none;stroke-opacity:1"
         d="m 77.661671,146.00549 -0.380999,-0.8967 c 0,0 -3.980824,-6.23542 -4.967937,-8.8162 -2.456756,-6.42314 -2.244195,-12.05736 -1.297617,-16.42053 1.627384,-7.50129 6.401153,-12.43882 7.520939,-13.37128 4.706579,-3.91921 8.69713,-5.84528 14.447443,-8.025627 -6.749771,0.509791 -18.346156,3.948027 -22.708759,16.792947 -1.827922,6.60364 -1.552475,11.95659 -0.282983,16.51013 1.762861,6.32321 3.741384,9.75189 7.669913,14.22726 z"
         id="path47" /></g></g></svg>
