<?xml version="1.0" encoding="UTF-8" standalone="no"?>
<!-- Created with Inkscape (http://www.inkscape.org/) -->

<svg
   width="44.163113mm"
   height="79.802574mm"
   viewBox="0 0 44.163113 79.802574"
   version="1.1"
   id="svg1"
   xml:space="preserve"
   xmlns:xlink="http://www.w3.org/1999/xlink"
   xmlns="http://www.w3.org/2000/svg"
   xmlns:svg="http://www.w3.org/2000/svg"><defs
     id="defs1"><linearGradient
       id="linearGradient114"><stop
         style="stop-color:#ffffff;stop-opacity:1;"
         offset="0"
         id="stop114" /><stop
         style="stop-color:#ffffff;stop-opacity:0;"
         offset="1"
         id="stop115" /></linearGradient><linearGradient
       id="linearGradient75"><stop
         style="stop-color:#ffffff;stop-opacity:1;"
         offset="0"
         id="stop75" /><stop
         style="stop-color:#ffffff;stop-opacity:0.47209302;"
         offset="1"
         id="stop76" /></linearGradient><linearGradient
       id="linearGradient40"><stop
         style="stop-color:#ed1e26;stop-opacity:1;"
         offset="0"
         id="stop40" /><stop
         style="stop-color:#ed1e26;stop-opacity:0;"
         offset="1"
         id="stop41" /></linearGradient><linearGradient
       xlink:href="#linearGradient40"
       id="linearGradient41"
       x1="99.757027"
       y1="135.6279"
       x2="102.88764"
       y2="135.63161"
       gradientUnits="userSpaceOnUse" /><radialGradient
       xlink:href="#linearGradient75"
       id="radialGradient76"
       cx="101.65458"
       cy="135.05215"
       fx="101.65458"
       fy="135.05215"
       r="0.16454057"
       gradientTransform="matrix(1,0,0,1.0171037,0,-2.3098949)"
       gradientUnits="userSpaceOnUse" /><filter
       style="color-interpolation-filters:sRGB"
       id="filter103"
       x="-0.6692917"
       y="-0.47064937"
       width="2.3385834"
       height="1.9412987"><feGaussianBlur
         stdDeviation="0.80105951"
         id="feGaussianBlur103" /></filter><radialGradient
       xlink:href="#linearGradient114"
       id="radialGradient116"
       cx="-161.46806"
       cy="-49.868919"
       fx="-161.46806"
       fy="-49.868919"
       r="0.019006789"
       gradientTransform="matrix(1,0,0,13.508056,0,623.76325)"
       gradientUnits="userSpaceOnUse" /><radialGradient
       xlink:href="#linearGradient114"
       id="radialGradient117"
       cx="49.878834"
       cy="-161.46506"
       fx="49.878834"
       fy="-161.46506"
       r="0.020907553"
       gradientTransform="matrix(1,0,0,12.072677,0,1787.8505)"
       gradientUnits="userSpaceOnUse" /></defs><g
     id="layer2"
     style="display:inline"
     transform="translate(-84.762507,-102.94323)"><g
       id="g104"
       style="display:inline;fill:url(#linearGradient41);fill-opacity:1;stroke:#ffffff;stroke-opacity:0.0928854"
       transform="matrix(-2.5472843,1.809497,-1.8405716,-2.5042781,608.85059,289.43718)"><ellipse
         style="display:inline;fill:#e91c24;fill-opacity:1;fill-rule:evenodd;stroke:none;stroke-width:0.151914;stroke-linecap:butt;stroke-linejoin:miter;stroke-dasharray:none;stroke-opacity:0.98419;paint-order:normal"
         id="path104"
         cx="173.81506"
         cy="-2.0726571"
         rx="6.2526832"
         ry="6.9276886"
         transform="matrix(-0.00187957,-0.32172341,0.32008036,-0.0070912,102.30337,189.49765)" /><ellipse
         style="display:inline;mix-blend-mode:normal;fill:#ffffff;fill-opacity:1;fill-rule:evenodd;stroke:none;stroke-width:0.0067045;stroke-linecap:butt;stroke-linejoin:miter;stroke-dasharray:none;stroke-opacity:1;paint-order:normal;filter:url(#filter103)"
         id="path78"
         cx="-143.18959"
         cy="92.569603"
         rx="1.4362518"
         ry="2.0424364"
         transform="matrix(-0.04098301,-0.63689914,0.6352093,-0.06188119,36.88859,49.275271)" /><g
         id="g75"
         style="display:inline;fill:url(#radialGradient76);fill-opacity:1;stroke:#ffffff;stroke-opacity:0.0928854"
         transform="matrix(0.96313718,0,0,0.96313718,3.7039364,4.8072052)"><ellipse
           style="display:inline;fill:url(#radialGradient117);fill-rule:nonzero;stroke:none;stroke-width:0.0660843;stroke-linecap:butt;stroke-linejoin:miter;stroke-dasharray:none;stroke-opacity:0.0928854;paint-order:normal"
           id="path71-4"
           cx="49.878834"
           cy="-161.46506"
           rx="0.020907553"
           ry="0.25241014"
           transform="matrix(-0.5856561,0.81055964,-0.81057731,-0.58563164,0,0)" /><ellipse
           style="display:inline;fill:url(#radialGradient116);fill-rule:nonzero;stroke:none;stroke-width:0.0635475;stroke-linecap:butt;stroke-linejoin:miter;stroke-dasharray:none;stroke-opacity:0.0928854;paint-order:normal"
           id="path71"
           cx="-161.46806"
           cy="-49.868919"
           rx="0.019006789"
           ry="0.25674477"
           transform="rotate(-144.14954)" /></g><path
         style="display:inline;fill:none;fill-opacity:1;fill-rule:evenodd;stroke:#000000;stroke-width:0.646963;stroke-dasharray:none;stroke-opacity:1"
         d="m 99.353752,134.82335 c -0.342509,-0.50937 -0.526738,-1.06349 -0.294895,-1.82559 0.716951,-2.35673 3.849763,-1.53951 4.495753,-0.33029 0.31739,0.59412 0.24951,1.0455 0.12559,1.48722 -0.27228,0.97089 -1.30163,1.64078 -2.40224,1.5943 -0.63182,-0.027 -1.488148,-0.27711 -1.924245,-0.92565 z"
         id="path3" /></g><path
       style="fill:none;fill-rule:evenodd;stroke:#000000;stroke-width:2.1;stroke-dasharray:none;stroke-opacity:1"
       d="m 93.896601,110.93251 c 2.414731,10.68624 1.982224,20.92594 1.090667,30.63758 -1.164698,12.68693 -7.279452,28.57352 -5.630661,36.23815 0.405249,1.88385 1.821659,2.02662 3.035524,2.01214 2.978175,-0.0355 4.812326,-2.96482 7.327648,-5.11299 1.773681,-1.51478 3.766491,-2.67477 5.796371,-3.34949 1.4812,-0.49235 2.94952,-0.91908 4.61394,-0.37844 6.47919,2.10459 8.72698,9.94155 11.25568,10.60539 0.92285,0.24227 2.13492,0.0175 2.77883,-0.68652 1.58187,-1.72959 1.81465,-3.77426 1.95761,-6.15403 1.59294,-26.5177 -14.35937,-46.03634 -23.1518,-55.95051 -2.73123,-3.07968 -5.828308,-5.06769 -9.073809,-7.8613 z"
       id="path1" /><path
       style="display:inline;fill:#000000;fill-opacity:1;fill-rule:evenodd;stroke:none;stroke-width:0.510696;stroke-dasharray:none;stroke-opacity:1"
       d="m 95.807358,125.76127 c 0.0036,-3.96854 -0.133018,-6.40503 -0.516925,-9.21297 -0.07781,-0.56915 -0.260337,-1.46457 -0.289909,-1.99698 l -0.245509,-1.64849 v -0.22394 l 1.692172,1.30322 c 4.364843,3.36153 5.311363,4.24441 8.298033,7.74012 2.04646,2.39525 4.32,5.27482 6.22445,7.88361 1.26529,1.73325 2.99749,4.24227 2.99749,4.34173 0,0 -1.20618,0.82381 -1.55689,1.0201 -0.19839,-0.62713 -0.47771,-1.17223 -0.96502,-1.52489 -1.42046,-1.02794 -3.00851,-1.28308 -5.10141,-1.2825 -5.02699,0.001 -8.24205,2.52834 -8.948347,6.54255 -0.158695,0.90191 0.228075,1.92085 0.427032,2.84954 0.0377,0.17593 -0.698682,0.57636 -1.900384,1.16377 -0.756057,0.36958 -1.538804,0.68653 -1.538804,0.63261 1.026961,-5.8592 1.418303,-11.43454 1.424021,-17.58748 z"
       id="path5" /><path
       style="display:inline;fill:#000000;fill-opacity:1;fill-rule:evenodd;stroke:none;stroke-width:0.1;stroke-dasharray:none;stroke-opacity:1"
       d="m 121.70852,145.47611 c 0,0 -0.23995,-0.5506 -0.33187,-1.36077 -0.13164,-1.16028 -0.0388,-2.85396 0.11352,-3.72556 0.18465,-1.05652 0.58294,-1.82687 1.01807,-2.63739 0.41879,-0.78008 1.01809,-1.44884 1.18761,-2.24658 0.71508,-3.36514 -0.13505,-6.61983 0.38624,-8.86752 0.11388,-0.491 0.363,-0.81923 0.62387,-1.22273 0.63988,-0.98973 2.02917,-1.55138 2.61238,-2.57414 0.72822,-1.27706 0.85816,-2.85088 0.88418,-4.32075 0.0335,-1.89449 -1.05596,-3.71446 -0.9418,-5.60581 0.043,-0.71192 0.11084,-1.7192 0.31665,-2.55097 0.25597,-1.03452 1.13113,-2.99036 1.13113,-2.99036 0.18287,-0.33905 0.26337,-0.92796 0.19033,-1.43061 -0.16515,-1.13656 -1.28581,-1.33468 -2.25937,-1.14973 -0.55579,0.10559 -1.2745,0.48036 -1.75776,0.93529 -1.66283,1.56535 -1.62345,6.08387 -2.39933,6.06952 -0.50377,-0.009 -0.89687,-1.62926 -1.19646,-2.3842 -0.69815,-1.75929 -0.51948,-3.72229 -1.1399,-5.13525 -0.1704,-0.38807 -0.39847,-0.77502 -0.86406,-1.02498 -0.51423,-0.27608 -2.84952,-0.89574 -3.21681,1.11856 -0.10599,0.58125 -0.12592,1.30947 -0.11972,1.98823 0.0291,3.18847 1.43433,6.98599 1.0786,6.80494 -0.95348,-0.48527 -2.25676,-2.91157 -2.25676,-2.91157 l -1.32131,-2.74787 c 0,0 -0.44379,-0.84885 -1.22596,-0.89061 -1.19833,-0.064 -2.55448,0.59878 -2.49243,2.5978 0.0372,1.19946 0.22194,1.70784 0.48316,2.52346 0.52284,1.63249 1.30181,3.18157 2.14712,4.67283 0.67234,1.18612 2.88687,3.38422 2.58482,3.44437 -0.44132,0.0879 -2.94986,0.50817 -4.09941,1.37812 -0.45317,0.34294 -0.91514,0.88939 -0.96192,1.40765 -0.0656,0.72661 0.2882,2.02213 0.90701,2.26506 1.23291,0.48401 3.1113,-0.99788 4.52663,-0.45345 1.21361,0.46684 2.79148,1.65516 3.64799,2.01297 0.67017,0.27996 1.57454,0.18354 2.09966,0.63132 0.88657,0.756 1.00702,1.92691 1.22327,2.97806 0.17642,0.85755 0.1356,1.74476 0.14145,2.61902 0.004,0.58519 0.0906,1.19472 -0.0713,1.75417 -0.20975,0.72485 -0.65511,1.41686 -1.23946,1.89428 -0.60422,0.49365 -1.52714,0.92817 -2.30353,1.0056 -0.52035,0.0519 -1.55518,-0.36248 -1.55518,-0.36248"
       id="path7" /><path
       style="display:inline;fill:#000000;fill-opacity:1;fill-rule:evenodd;stroke:none;stroke-width:0.1;stroke-dasharray:none;stroke-opacity:1"
       d="m 94.631441,139.11631 c -0.599629,3.86243 -3.900856,8.17407 -5.844995,12.2641 -0.414442,0.87189 -1.062617,1.66813 -1.240644,2.61695 -0.241357,1.28635 -0.119369,2.3188 0.281482,3.91629 0.421337,1.67913 1.308659,4.25403 0.87613,6.03449 -0.919835,3.78641 -4.891183,5.33816 -3.73008,7.69402 0.382714,0.77652 2.05665,1.5487 2.95834,1.29792 1.133004,-0.31512 1.325137,-1.79404 1.708592,-3.40568 0.627406,-2.63695 1.803193,-6.44328 0.667814,-9.45687 -0.44998,-1.19436 -1.113804,-2.31484 -1.157158,-3.50948 -0.07348,-2.02467 1.086298,-3.83856 2.078817,-4.89367 0.331135,-0.35202 0.924613,0.64581 1.195264,1.14646"
       id="path6" /></g></svg>
