<?xml version="1.0" encoding="UTF-8" standalone="no"?>
<!-- Created with Inkscape (http://www.inkscape.org/) -->

<svg
   width="215.89999mm"
   height="279.39999mm"
   viewBox="0 0 215.89999 279.4"
   version="1.1"
   id="svg1"
   inkscape:version="1.3.2 (091e20e, 2023-11-25, custom)"
   sodipodi:docname="tomcat.svg"
   xml:space="preserve"
   inkscape:export-filename="tomcat.svg"
   inkscape:export-xdpi="690.66144"
   inkscape:export-ydpi="690.66144"
   xmlns:inkscape="http://www.inkscape.org/namespaces/inkscape"
   xmlns:sodipodi="http://sodipodi.sourceforge.net/DTD/sodipodi-0.dtd"
   xmlns="http://www.w3.org/2000/svg"
   xmlns:svg="http://www.w3.org/2000/svg"><sodipodi:namedview
     id="namedview1"
     pagecolor="#ffffff"
     bordercolor="#000000"
     borderopacity="0.25"
     inkscape:showpageshadow="2"
     inkscape:pageopacity="0.0"
     inkscape:pagecheckerboard="0"
     inkscape:deskcolor="#d1d1d1"
     inkscape:document-units="mm"
     inkscape:zoom="0.64"
     inkscape:cx="445.3125"
     inkscape:cy="416.40625"
     inkscape:window-width="1920"
     inkscape:window-height="1017"
     inkscape:window-x="-8"
     inkscape:window-y="-8"
     inkscape:window-maximized="1"
     inkscape:current-layer="layer1" /><defs
     id="defs1"><linearGradient
       id="swatch50"
       inkscape:swatch="solid"><stop
         style="stop-color:#020102;stop-opacity:1;"
         offset="0"
         id="stop50" /></linearGradient></defs><g
     inkscape:label="Drawing"
     inkscape:groupmode="layer"
     id="layer1"
     style="display:inline"
     transform="matrix(19.269809,0,0,19.274494,-1600.6102,-3617.883)"><g
       id="g3"
       inkscape:label="main"><path
         style="display:inline;fill:#d1a41b;fill-opacity:1;fill-rule:evenodd;stroke:#010202;stroke-width:0.19;stroke-dasharray:none;stroke-opacity:1"
         d="m 88.917011,194.39662 c -1.236594,0.3297 -2.216597,0.88814 -2.947554,1.43174 -0.330459,0.24575 -0.581032,0.46574 -0.829514,0.71785 -0.113936,0.1156 -0.239209,0.24757 -0.348231,0.37411 -0.278006,0.32268 -0.598793,0.68726 -0.83068,1.02675 -0.228757,0.33491 -0.432668,0.60299 -0.600908,0.94191 -0.02659,0.0536 -0.06974,0.10468 -0.123428,0.26215 l -5e-4,0.016 1.013206,-0.002 c -0.06865,-0.26626 0.0084,-0.6952 0.237168,-1.05902 0.123221,-0.19598 0.267928,-0.3517 0.453486,-0.48263 0.236005,-0.16651 0.466555,-0.26296 0.690628,-0.31036 0.265412,-0.0561 0.514638,-0.0658 0.7513,-0.0584 0.551788,0.0173 1.05378,0.0688 1.556332,0.1652 0.868291,0.16653 1.712163,0.41611 2.530103,0.75888 0.419813,0.17593 0.850676,0.35222 1.266275,0.55609 0.218718,0.10729 0.428202,0.19991 0.642706,0.31117 0.203086,0.10534 0.416822,0.23244 0.630805,0.32806 l 1.065761,-0.002 c 0.01445,-0.10394 -0.04976,-0.17984 -0.101053,-0.25508 -0.270228,-0.39642 -0.843296,-0.39275 -0.941944,-0.37115 l -1.666953,-1.79383"
         id="path1"
         sodipodi:nodetypes="cssssscccssssssssccscc"
         inkscape:label="body" /><path
         style="display:inline;fill:#ffdc76;fill-opacity:1;fill-rule:evenodd;stroke:#010202;stroke-width:0.2;stroke-linecap:butt;stroke-linejoin:miter;stroke-miterlimit:4;stroke-dasharray:none;stroke-opacity:1"
         d="m 88.826824,192.51397 c -0.0643,0.87875 0.07881,1.64522 0.322173,2.29341 0.249225,0.66379 0.551268,1.05383 1.047282,1.55744 0.162461,0.14737 0.325325,0.29364 0.515179,0.42408 0.106248,0.073 0.283012,0.19809 0.377049,0.2483 0,0 0.132357,-0.0821 0.317648,-0.211 0.119548,-0.0832 0.267096,-0.20741 0.390536,-0.31168 0.228075,-0.19265 0.408148,-0.39185 0.636849,-0.72973 0.295587,-0.4367 0.585729,-0.94053 0.741263,-1.76762 0.07313,-0.38889 0.09395,-0.93176 0.04549,-1.44325 -0.02717,-0.28673 -0.0794,-0.62624 -0.105477,-0.71232 -0.08649,-0.26289 -0.244721,0.42478 -0.33817,0.57575 -0.159985,0.25847 -0.186949,0.26847 -0.306815,0.37131 -0.47295,-0.12073 -0.923474,-0.15877 -1.420354,-0.15086 -0.401794,0.006 -0.836605,0.023 -1.345173,0.17763 -0.233226,-0.11512 -0.271769,-0.16013 -0.397493,-0.38228 -0.149198,-0.26362 -0.164659,-0.67287 -0.277338,-0.64419 -0.103355,-0.0909 -0.202645,0.70498 -0.202645,0.70498 z"
         id="path2"
         sodipodi:nodetypes="cscssssssccscscsccc"
         inkscape:label="face" /><path
         style="display:inline;fill:none;fill-opacity:0.455073;fill-rule:evenodd;stroke:#010202;stroke-width:0.19;stroke-linecap:butt;stroke-linejoin:miter;stroke-miterlimit:4;stroke-dasharray:none;stroke-opacity:1"
         d="m 88.911077,191.73259 c 0.451337,0.2045 0.950423,0.53393 1.040987,1.02103 0.671218,-0.13247 1.487138,-0.12739 2.188463,-0.0343 0.0632,-0.23585 0.282609,-0.52738 0.683441,-0.78081 0.10887,-0.0688 0.219407,-0.1423 0.357419,-0.18991"
         id="path3"
         sodipodi:nodetypes="cccsc"
         inkscape:label="ears" /><path
         style="fill:#010202;fill-opacity:1;fill-rule:evenodd;stroke:#010202;stroke-width:0.19;stroke-dasharray:none;stroke-opacity:1"
         d="m 87.391047,198.33001 c 0.352727,-0.0924 0.547705,0.0462 0.558107,0.22738 l -0.669727,-0.004 z"
         id="path24"
         sodipodi:nodetypes="cccc"
         inkscape:label="paw" /><path
         style="fill:#010202;fill-opacity:1;fill-rule:evenodd;stroke:#010202;stroke-width:0.0649999;stroke-linecap:butt;stroke-miterlimit:5.2;stroke-dasharray:none;stroke-opacity:1;paint-order:normal"
         d="m 85.873827,197.37503 0.926042,-0.0124 0.289388,0.91364 -0.02479,0.0744 -0.593695,-0.47144 z"
         id="path39"
         inkscape:label="left leg"
         sodipodi:nodetypes="cccccc" /><path
         style="fill:#010202;fill-opacity:1;fill-rule:evenodd;stroke:#010202;stroke-width:0.245669;stroke-linecap:butt;stroke-miterlimit:4;stroke-dasharray:none;stroke-opacity:1;paint-order:normal"
         d="m 338.96094,728.37813 c -0.1471,-0.077 -0.32688,-0.18541 -0.41016,-0.24731 -0.0889,-0.0661 -0.21647,-0.18932 -0.28503,-0.27535 -0.1029,-0.12911 -0.23267,-0.33543 -0.40941,-0.65092 -0.22539,-0.40233 -0.28416,-0.53411 -0.4292,-0.96236 -0.0856,-0.25274 -0.11571,-0.33708 -0.16804,-0.47071 -0.0172,-0.044 -0.0298,-0.0801 -0.028,-0.0801 0.0128,0 0.36124,0.23083 0.51495,0.34117 0.81386,0.5842 1.38996,1.24264 1.67867,1.91857 0.0374,0.0876 0.0972,0.2492 0.11659,0.315 l 0.0116,0.0396 -0.0988,0.0259 c -0.0543,0.0142 -0.15946,0.043 -0.23365,0.0639 -0.0742,0.0209 -0.13923,0.038 -0.14453,0.0379 -0.005,-7e-5 -0.0571,-0.025 -0.11511,-0.0553 z"
         id="path48"
         transform="scale(0.26458333)"
         inkscape:label="fill ear left" /><path
         style="fill:#020102;fill-opacity:1;fill-rule:evenodd;stroke:#010202;stroke-width:0.245669;stroke-linecap:butt;stroke-miterlimit:4;stroke-dasharray:none;stroke-opacity:1;paint-order:normal"
         d="m 349.01748,728.23417 -0.30432,-0.0697 0.0956,-0.18738 c 0.33511,-0.65666 1.00818,-1.37994 1.81561,-1.95106 0.0966,-0.0683 0.17819,-0.12167 0.18132,-0.11854 0.0112,0.0112 -0.326,0.91329 -0.39892,1.06712 -0.24881,0.5248 -0.88609,1.34055 -1.04049,1.33187 -0.0245,-10e-4 -0.18145,-0.0339 -0.34882,-0.0723 z"
         id="path50"
         transform="scale(0.26458333)"
         inkscape:label="fill ear right" /></g><g
       id="g14"
       inkscape:label="tail and marks"
       style="display:inline"><path
         style="fill:none;fill-opacity:0.455073;fill-rule:evenodd;stroke:#010202;stroke-width:0.19;stroke-dasharray:none;stroke-opacity:1"
         d="m 87.049854,196.22744 c -0.184673,0.62852 -0.270055,1.52987 0.167164,2.04345 l -0.119066,0.23938 c -0.321099,-0.22092 -0.950093,-0.69579 -1.517098,-1.27162 -0.33731,-0.34256 -0.645127,-0.72464 -0.873886,-1.09986 -0.280208,-0.54733 -0.522146,-1.15932 -0.272767,-1.76856 0.191977,-0.55518 0.723966,-0.92538 1.298735,-0.92775 0.191454,-0.01 0.419007,0.0157 0.607751,0.0486"
         id="path4"
         inkscape:label="left leg and tail"
         sodipodi:nodetypes="cccscccc" /><path
         style="fill:#010202;fill-opacity:1;fill-rule:evenodd;stroke:#010202;stroke-width:0.19;stroke-dasharray:none;stroke-opacity:1"
         d="m 86.435214,193.43078 c 0.0908,-0.22745 0.404109,-0.0849 0.627493,0.003 0.207018,0.10024 0.448685,0.29216 0.56882,0.4219 -0.292033,0.10347 -0.843019,0.12113 -1.130561,-0.0247 -0.163314,-0.0953 -0.108755,-0.13114 -0.111456,-0.3029 z"
         id="path5"
         inkscape:label="tail end"
         sodipodi:nodetypes="cccccc" /><path
         style="fill:#010202;fill-opacity:1;fill-rule:evenodd;stroke:#010202;stroke-width:0.0649999;stroke-dasharray:none;stroke-opacity:1"
         d="m 87.978091,194.80568 c 0.107487,0.28939 0.171566,0.51779 0.270785,0.80615 -0.294211,-0.19396 -0.548115,-0.36519 -0.840259,-0.56638"
         id="path6"
         inkscape:label="mark a"
         sodipodi:nodetypes="ccc" /><path
         style="fill:#010202;fill-opacity:1;fill-rule:evenodd;stroke:#010202;stroke-width:0.0649999;stroke-dasharray:none;stroke-opacity:1"
         d="m 87.082022,195.22633 c 0.09956,0.17501 0.158819,0.27353 0.255282,0.44648 l -0.563273,-0.28525"
         id="path7"
         inkscape:label="mark b"
         sodipodi:nodetypes="ccc" /><path
         style="fill:#010202;fill-opacity:1;fill-rule:evenodd;stroke:#010202;stroke-width:0.0649999;stroke-dasharray:none;stroke-opacity:1"
         d="m 86.314111,195.69245 c 0.04306,0.1664 0.07683,0.27182 0.119889,0.43408 l -0.374138,-0.25839"
         id="path8"
         inkscape:label="mark c"
         sodipodi:nodetypes="ccc" /><path
         style="fill:#010202;fill-opacity:1;fill-rule:evenodd;stroke:#010202;stroke-width:0.0649999;stroke-dasharray:none;stroke-opacity:1"
         d="m 91.493208,197.2169 c -0.119202,0.18617 -0.219858,0.3392 -0.219858,0.3392 0.245617,-0.11223 0.269602,-0.12206 0.375837,-0.17281"
         id="path9"
         inkscape:label="mark d"
         sodipodi:nodetypes="ccc" /><path
         style="fill:#010202;fill-opacity:1;fill-rule:evenodd;stroke:#010202;stroke-width:0.065;stroke-linecap:butt;stroke-miterlimit:5.2;stroke-dasharray:none;stroke-opacity:1;paint-order:normal"
         d="m 91.961085,197.73591 -0.341175,0.26499 0.487761,-0.1285"
         id="path34"
         sodipodi:nodetypes="ccc"
         inkscape:transform-center-x="-0.43816803"
         inkscape:transform-center-y="-0.22781418"
         inkscape:label="mark e" /><path
         style="fill:#010202;fill-opacity:1;fill-rule:evenodd;stroke:#010202;stroke-width:0.0649999;stroke-miterlimit:4;stroke-dasharray:none;stroke-opacity:1"
         d="m 93.080622,194.12251 -0.282153,0.11679 0.241846,0.0351"
         id="path11"
         inkscape:label="mark f"
         sodipodi:nodetypes="ccc" /><path
         style="fill:#010202;fill-opacity:1;fill-rule:evenodd;stroke:#010202;stroke-width:0.0649999;stroke-dasharray:none;stroke-opacity:1"
         d="m 92.9361,194.66473 -0.233294,0.066 0.175099,0.063"
         id="path12"
         inkscape:label="mark g"
         sodipodi:nodetypes="ccc" /><path
         style="fill:#010202;fill-opacity:1;fill-rule:evenodd;stroke:#010202;stroke-width:0.0649999;stroke-miterlimit:4.3;stroke-dasharray:none;stroke-opacity:1"
         d="m 88.970443,193.8784 0.451519,0.23691 -0.382333,0.0245"
         id="path13"
         inkscape:label="mark h"
         sodipodi:nodetypes="ccc" /><path
         style="fill:#010202;fill-opacity:1;fill-rule:evenodd;stroke:#010202;stroke-width:0.0649999;stroke-miterlimit:4;stroke-dasharray:none;stroke-opacity:1"
         d="m 89.119107,194.49586 0.233959,0.087 -0.186417,0.0461"
         id="path14"
         inkscape:label="mark i"
         sodipodi:nodetypes="ccc" /><path
         style="fill:#010202;fill-opacity:1;fill-rule:evenodd;stroke:#010202;stroke-width:0.0649999;stroke-dasharray:none;stroke-opacity:1"
         d="m 90.832697,192.73759 0.299724,0.65629 0.188103,-0.6532"
         id="path23"
         inkscape:label="mark j"
         sodipodi:nodetypes="ccc" /></g><g
       id="g22"
       inkscape:label="face"
       style="display:inline"><path
         style="fill:none;fill-opacity:1;fill-rule:evenodd;stroke:#010202;stroke-width:0.135;stroke-dasharray:none;stroke-opacity:1"
         d="m 88.78506,195.23126 1.114577,-0.001"
         id="path15"
         inkscape:label="whisker a" /><path
         style="fill:#1f69bc;fill-opacity:0.455073;fill-rule:evenodd;stroke:#010202;stroke-width:0.139674;stroke-dasharray:none;stroke-opacity:1"
         d="m 88.783211,195.5591 h 1.115178"
         id="path16"
         inkscape:label="whisker b" /><path
         style="fill:#1f69bc;fill-opacity:0.455073;fill-rule:evenodd;stroke:#010202;stroke-width:0.140754;stroke-dasharray:none;stroke-opacity:1"
         d="m 92.182158,195.23003 1.116364,0.001"
         id="path17"
         inkscape:label="whisker c" /><path
         style="fill:#1f69bc;fill-opacity:0.455073;fill-rule:evenodd;stroke:#010202;stroke-width:0.14006;stroke-dasharray:none;stroke-opacity:1"
         d="M 92.184353,195.55919 H 93.29681"
         id="path18"
         inkscape:label="whisker d" /><path
         style="fill:none;fill-opacity:0.455073;fill-rule:evenodd;stroke:#010202;stroke-width:0.12;stroke-dasharray:none;stroke-opacity:1"
         d="m 89.861742,193.73423 c 0.112304,-0.28478 0.4357,-0.47533 0.636222,-0.37673 0.195913,0.0963 0.279784,0.50994 -0.01075,1.27118 -0.03904,0.10228 -0.09701,0.1946 -0.149698,0.31019 l 1.252723,0.79586"
         id="path19"
         sodipodi:nodetypes="csscc" /><path
         style="fill:none;fill-opacity:0.455073;fill-rule:evenodd;stroke:#010202;stroke-width:0.12;stroke-dasharray:none;stroke-opacity:1"
         d="m 92.525558,193.71124 c -0.09043,0.005 -0.363172,0.001 -0.570192,0.16369 -0.09248,0.0726 -0.165017,0.18768 -0.218987,0.30969 -0.04729,0.10691 -0.08758,0.22635 -0.08017,0.35792 0.0069,0.12174 0.05633,0.25387 0.13621,0.39607 l -0.288461,0.1832 -0.905662,0.5949"
         id="path20"
         sodipodi:nodetypes="csssccc" /><path
         style="fill:#1f69bc;fill-opacity:0.455073;fill-rule:evenodd;stroke:#010202;stroke-width:0.120415;stroke-dasharray:none;stroke-opacity:1"
         d="m 89.973857,194.2796 2.354628,0.004"
         id="path21"
         sodipodi:nodetypes="cc" /><path
         style="fill:#1f69bc;fill-opacity:0.455073;fill-rule:evenodd;stroke:#010202;stroke-width:0.12;stroke-dasharray:none;stroke-opacity:1"
         d="m 90.338661,194.93873 1.430423,0.002"
         id="path22"
         sodipodi:nodetypes="cc" /></g></g></svg>
